Coordinates
version=1
nRows=12
nColumns=24
inDegrees=yes

Units are S.I. units (second, meters, Newtons, ...)
Angles are in degrees.

endheader
time	pelvis_tilt	pelvis_list	pelvis_rotation	pelvis_tx	pelvis_ty	pelvis_tz	hip_flexion_r	hip_adduction_r	hip_rotation_r	knee_angle_r	ankle_angle_r	subtalar_angle_r	mtp_angle_r	hip_flexion_l	hip_adduction_l	hip_rotation_l	knee_angle_l	ankle_angle_l	subtalar_angle_l	mtp_angle_l	lumbar_extension	lumbar_bending	lumbar_rotation
      3.91500000	     -8.74724227	      8.74991106	      1.40279700	     -0.82185620	     -0.01755260	      0.71600092	     40.29703159	    -12.23130054	     -0.30288326	    -64.10151214	    -14.64168672	    -13.20905906	     30.03703324	      4.10099037	     13.40154217	     14.27020045	    -14.16899315	     15.46407022	    -10.41082855	    -27.20730297	      6.54376244	    -10.31890761	     -7.38147569
      3.92000000	     -8.71591330	      8.59115596	      1.54938213	     -0.81552921	     -0.01776818	      0.71560041	     40.71411402	    -12.02223187	     -0.24400533	    -63.20025453	    -14.35761696	    -13.34067126	     29.31636171	      3.50610200	     13.20388100	     14.36316090	    -13.90867504	     15.56775509	    -10.22033271	    -26.95271495	      6.40065392	    -10.08935393	     -7.71562815
      3.92500000	     -8.64944136	      8.46087028	      1.69945200	     -0.80920308	     -0.01800708	      0.71522937	     41.05860183	    -11.84894900	     -0.18628994	    -62.24383679	    -14.01009812	    -13.46914174	     28.47064783	      2.89698550	     13.03149063	     14.41677592	    -13.69063571	     15.65678648	     -9.98096993	    -26.62757947	      6.22099812	     -9.89286799	     -8.02955723
      3.93000000	     -8.61350940	      8.32744332	      1.85908238	     -0.80289853	     -0.01832675	      0.71485039	     41.40760126	    -11.68285390	     -0.12361904	    -61.23232567	    -13.68354505	    -13.54776154	     27.69715297	      2.33466543	     12.85567466	     14.46554444	    -13.49154560	     15.74825117	     -9.74387387	    -26.28386752	      6.06616498	     -9.69402849	     -8.34942622
      3.93500000	     -8.64701892	      8.19364318	      1.99709287	     -0.79653468	     -0.01874959	      0.71444475	     41.79921630	    -11.50969333	     -0.02347726	    -60.14313692	    -13.41460066	    -13.59942650	     27.25072258	      1.84766906	     12.68524868	     14.52655324	    -13.29236918	     15.84155779	     -9.56663661	    -26.08157445	      6.00458013	     -9.48183568	     -8.60652883
      3.94000000	     -8.53199787	      8.09659146	      2.16214830	     -0.79038066	     -0.01909753	      0.71415000	     42.00837438	    -11.38152336	      0.05473520	    -59.03351437	    -13.04345635	    -13.69131437	     26.21937837	      1.25795962	     12.53650556	     14.51901480	    -13.18551657	     15.95349908	     -9.20416290	    -25.63761211	      5.72644375	     -9.32848207	     -8.97486538
      3.94500000	     -8.62469563	      7.96603473	      2.30225794	     -0.78405258	     -0.01965159	      0.71371735	     42.39191426	    -11.21923302	      0.18378821	    -57.81391301	    -12.76509920	    -13.70615468	     25.91241548	      0.88169316	     12.38182178	     14.55909472	    -13.06549287	     16.01879435	     -9.07190090	    -25.47800877	      5.71965822	     -9.11138384	     -9.25310055
      3.95000000	     -8.49939508	      7.86000308	      2.43685156	     -0.77782833	     -0.02001946	      0.71347347	     42.51721508	    -11.07719674	      0.26434654	    -56.59399677	    -12.36104992	    -13.71300474	     24.56147551	      0.30174968	     12.20961522	     14.40556844	    -12.97554083	     16.05298026	     -8.61680626	    -24.75137386	      5.44831443	     -8.94181117	     -9.60121613
      3.95500000	     -8.50909639	      7.71449805	      2.58706112	     -0.77151717	     -0.02054830	      0.71315000	     42.73135725	    -10.91657871	      0.34044545	    -55.28579838	    -11.97280109	    -13.68361269	     23.61900699	     -0.12843337	     12.00852878	     14.32185736	    -12.89959158	     15.95574402	     -8.27103138	    -23.67769554	      5.34026814	     -8.72094608	     -9.89410369
      3.96000000	     -8.61095021	      7.61417035	      2.80956597	     -0.76523873	     -0.02117950	      0.71263179	     43.00762250	    -10.87215203	      0.40637882	    -53.89890014	    -11.74164092	    -13.67831582	     23.43745155	     -0.45737058	     11.88314713	     14.41908207	    -12.86407703	     16.03155139	     -8.00798999	    -23.44541320	      5.32363662	     -8.54889600	    -10.27222036
      3.96500000	     -8.53806527	      7.50335046	      2.96429064	     -0.75902607	     -0.02165684	      0.71233637	     43.06801599	    -10.75789563	      0.49120364	    -52.48103649	    -11.43750214	    -13.71585147	     22.60474111	     -0.92899567	     11.70717797	     14.21600279	    -12.86576661	     16.08064022	     -7.48281557	    -22.73830572	      5.09754314	     -8.36257040	    -10.63638735
      3.97000000	     -8.67954027	      7.39612778	      3.12086359	     -0.75266417	     -0.02239136	      0.71188159	     43.32044547	    -10.66590699	      0.62102382	    -50.99259480	    -11.15845099	    -13.62620986	     22.41718716	     -1.19930877	     11.57634220	     14.24276924	    -12.84867103	     16.12993513	     -7.28823962	    -22.54434512	      5.14527302	     -8.16535407	    -10.91570751
